<svg width="1303" height="705" viewBox="0 0 1303 705" fill="none" xmlns="http://www.w3.org/2000/svg">
<circle cx="2.5" cy="94.5" r="2.5" fill="white" fill-opacity="0.9"/>
<circle cx="124.5" cy="57.5" r="2.5" fill="white" fill-opacity="0.5"/>
<circle opacity="0.3" cx="148.5" cy="2.5" r="2.5" fill="white" fill-opacity="0.5"/>
<circle cx="290.5" cy="130.5" r="2.5" fill="white" fill-opacity="0.9"/>
<circle cx="412.5" cy="93.5" r="2.5" fill="white" fill-opacity="0.5"/>
<circle opacity="0.3" cx="436.5" cy="38.5" r="2.5" fill="white" fill-opacity="0.5"/>
<circle cx="578.5" cy="166.5" r="2.5" fill="white" fill-opacity="0.9"/>
<circle cx="700.5" cy="129.5" r="2.5" fill="white" fill-opacity="0.5"/>
<circle opacity="0.3" cx="724.5" cy="74.5" r="2.5" fill="white" fill-opacity="0.5"/>
<circle cx="1043.5" cy="364.5" r="2.5" fill="white" fill-opacity="0.9"/>
<circle cx="1165.5" cy="327.5" r="2.5" fill="white" fill-opacity="0.5"/>
<circle opacity="0.3" cx="1189.5" cy="272.5" r="2.5" fill="white" fill-opacity="0.5"/>
<circle cx="329.5" cy="309.5" r="2.5" fill="white" fill-opacity="0.9"/>
<circle cx="451.5" cy="272.5" r="2.5" fill="white" fill-opacity="0.5"/>
<circle opacity="0.3" cx="475.5" cy="217.5" r="2.5" fill="white" fill-opacity="0.5"/>
<circle cx="300.5" cy="702.5" r="2.5" fill="white" fill-opacity="0.9"/>
<circle cx="422.5" cy="665.5" r="2.5" fill="white" fill-opacity="0.5"/>
<circle opacity="0.3" cx="446.5" cy="610.5" r="2.5" fill="white" fill-opacity="0.5"/>
<circle cx="1144.5" cy="567.5" r="2.5" fill="white" fill-opacity="0.9"/>
<circle cx="1266.5" cy="530.5" r="2.5" fill="white" fill-opacity="0.5"/>
<circle opacity="0.3" cx="1290.5" cy="475.5" r="2.5" fill="white" fill-opacity="0.5"/>
<circle cx="209.5" cy="538.5" r="2.5" fill="white" fill-opacity="0.9"/>
<circle cx="1154.5" cy="238.5" r="2.5" fill="white" fill-opacity="0.9"/>
<circle cx="1276.5" cy="201.5" r="2.5" fill="white" fill-opacity="0.5"/>
<circle opacity="0.3" cx="1300.5" cy="146.5" r="2.5" fill="white" fill-opacity="0.5"/>
<circle cx="222.5" cy="401.5" r="2.5" fill="white" fill-opacity="0.5"/>
<circle opacity="0.3" cx="246.5" cy="346.5" r="2.5" fill="white" fill-opacity="0.5"/>
<circle cx="523.5" cy="448.5" r="2.5" fill="white" fill-opacity="0.9"/>
<circle cx="645.5" cy="411.5" r="2.5" fill="white" fill-opacity="0.5"/>
<circle opacity="0.3" cx="669.5" cy="356.5" r="2.5" fill="white" fill-opacity="0.5"/>
<circle cx="761.5" cy="567.5" r="2.5" fill="white" fill-opacity="0.9"/>
<circle cx="883.5" cy="530.5" r="2.5" fill="white" fill-opacity="0.5"/>
<circle opacity="0.3" cx="907.5" cy="475.5" r="2.5" fill="white" fill-opacity="0.5"/>
<circle cx="806.5" cy="369.5" r="2.5" fill="white" fill-opacity="0.9"/>
<circle cx="928.5" cy="332.5" r="2.5" fill="white" fill-opacity="0.5"/>
<circle opacity="0.3" cx="952.5" cy="277.5" r="2.5" fill="white" fill-opacity="0.5"/>
<circle cx="851.5" cy="171.5" r="2.5" fill="white" fill-opacity="0.9"/>
<circle cx="973.5" cy="134.5" r="2.5" fill="white" fill-opacity="0.5"/>
<circle opacity="0.3" cx="997.5" cy="79.5" r="2.5" fill="white" fill-opacity="0.5"/>
</svg>
